Coordinates
version=1
nRows=12
nColumns=34
inDegrees=no

Units are S.I. units (second, meters, Newtons, ...)
If the header above contains a line with 'inDegrees', this indicates whether rotational values are in degrees (yes) or radians (no).

endheader
time	pelvis_tilt	pelvis_list	pelvis_rotation	pelvis_tx	pelvis_ty	pelvis_tz	hip_flexion_r	hip_adduction_r	hip_rotation_r	knee_angle_r	ankle_angle_r	subtalar_angle_r	mtp_angle_r	hip_flexion_l	hip_adduction_l	hip_rotation_l	knee_angle_l	ankle_angle_l	subtalar_angle_l	mtp_angle_l	lumbar_extension	lumbar_bending	lumbar_rotation	arm_flex_r	arm_add_r	arm_rot_r	elbow_flex_r	pro_sup_r	arm_flex_l	arm_add_l	arm_rot_l	elbow_flex_l	pro_sup_l
6.6	-0.535658	-0.0388567	-0.0366883	-0.344251	0.582784	-0.561363	1.7496	-0.170601	-0.0223338	1.72864	0.664837	0.0603998	-0.023072	1.8069	-0.327518	0.120989	1.74973	0.611438	0.0831144	-0.023072	-0.606341	0.0350286	0.0798239	1.95448	-0.409254	0.290074	1.34337	1.68421	1.92236	-0.316736	0.245529	1.26747	1.56363
6.61	-0.535827	-0.0379918	-0.0375551	-0.344775	0.579479	-0.560914	1.75806	-0.171893	-0.0221061	1.73838	0.666671	0.0627716	-0.023072	1.81518	-0.329294	0.123237	1.759	0.613128	0.0843457	-0.023072	-0.613346	0.0318814	0.0792796	1.96602	-0.408422	0.290897	1.34087	1.68381	1.93476	-0.316919	0.247603	1.26609	1.56353
6.62	-0.535918	-0.0371911	-0.0381631	-0.345256	0.576375	-0.560498	1.76595	-0.173617	-0.0221272	1.74755	0.668482	0.0652972	-0.023072	1.8229	-0.330791	0.125307	1.76764	0.614661	0.0854615	-0.023072	-0.619921	0.0290148	0.0785411	1.97702	-0.40757	0.291834	1.33818	1.68355	1.94619	-0.316996	0.249294	1.26475	1.56326
6.63	-0.535957	-0.0364101	-0.0385543	-0.345695	0.57347	-0.560112	1.77331	-0.175665	-0.0223153	1.75613	0.67029	0.0678927	-0.023072	1.83006	-0.332132	0.127106	1.77566	0.616083	0.0865925	-0.023072	-0.626009	0.0263911	0.0776642	1.98743	-0.406679	0.292882	1.3353	1.68341	1.95656	-0.316966	0.250559	1.26351	1.56287
6.64	-0.535961	-0.0356079	-0.0387784	-0.346093	0.570765	-0.55975	1.78014	-0.177915	-0.0225929	1.76412	0.672084	0.0704396	-0.023072	1.83666	-0.333436	0.128559	1.78304	0.617439	0.0878495	-0.023072	-0.631574	0.023974	0.0766956	1.99726	-0.405716	0.294041	1.33224	1.68332	1.96581	-0.316872	0.251404	1.26239	1.56241
6.65	-0.535945	-0.0347544	-0.0388822	-0.346453	0.568263	-0.55941	1.78646	-0.180247	-0.0228933	1.7715	0.673824	0.0728059	-0.023072	1.84268	-0.33479	0.129623	1.78979	0.61876	0.0893128	-0.023072	-0.636595	0.0217395	0.0756675	2.00649	-0.404644	0.295326	1.32898	1.68327	1.97392	-0.316797	0.251884	1.26144	1.56193
6.66	-0.535916	-0.0338323	-0.0389045	-0.346777	0.565964	-0.55909	1.7923	-0.18255	-0.0231599	1.77827	0.675445	0.0748661	-0.023072	1.84815	-0.336251	0.130282	1.79589	0.620062	0.0910277	-0.023072	-0.641066	0.019674	0.0745954	2.01517	-0.403437	0.296777	1.32552	1.68326	1.98091	-0.316838	0.252079	1.26065	1.56151
6.67	-0.535882	-0.0328323	-0.0388783	-0.347069	0.56387	-0.558786	1.79769	-0.184719	-0.0233393	1.78443	0.676869	0.0765118	-0.023072	1.85306	-0.33785	0.130546	1.80137	0.621332	0.0930038	-0.023072	-0.644989	0.017763	0.0734781	2.02333	-0.402091	0.298449	1.32185	1.68335	1.98685	-0.317086	0.252081	1.26001	1.56119
6.68	-0.535842	-0.0317438	-0.0388337	-0.347335	0.561979	-0.558493	1.80266	-0.18665	-0.0233708	1.79	0.678022	0.0776598	-0.023072	1.85746	-0.339609	0.130433	1.80625	0.62254	0.0952197	-0.023072	-0.648379	0.0159733	0.0722992	2.03098	-0.400623	0.300388	1.31802	1.6836	1.99186	-0.317606	0.251982	1.25947	1.56103
6.69	-0.535798	-0.0305532	-0.0387999	-0.347579	0.56029	-0.558206	1.80726	-0.188233	-0.0231871	1.79501	0.678845	0.0782533	-0.023072	1.86137	-0.341538	0.129967	1.81057	0.623637	0.0976263	-0.023072	-0.65125	0.0142492	0.0710375	2.03815	-0.39908	0.302622	1.3141	1.68411	1.99607	-0.318421	0.251867	1.25897	1.56103
6.7	-0.535759	-0.0292543	-0.0388039	-0.347808	0.5588	-0.557917	1.81154	-0.189357	-0.0227302	1.79948	0.679303	0.0782581	-0.023072	1.86484	-0.343629	0.129197	1.81436	0.624567	0.100143	-0.023072	-0.653615	0.0125257	0.0696869	2.04484	-0.397542	0.305171	1.31016	1.68493	1.99962	-0.319507	0.251813	1.25841	1.56119
6.71	-0.535748	-0.0278629	-0.038867	-0.348026	0.557504	-0.557617	1.81554	-0.189927	-0.021974	1.80343	0.679385	0.0776589	-0.023072	1.86795	-0.345832	0.128212	1.81765	0.625271	0.102647	-0.023072	-0.655469	0.0107525	0.0682722	2.05105	-0.396117	0.308049	1.30631	1.68603	2.00265	-0.320798	0.251875	1.25772	1.56146
